# xmcd
#
# Track frame offsets:
#	150
#	10432
#	22570
#	39544
#	51548
#	66344
#	76914
#	88914
#	106915
#	120167
#	131694
#	145361
#	155587
#
# Disc length: 2323 seconds
# Revision: 0
# Processed by: cddbd v1.5.2PL0 Copyright (c) Steve Scherf et al.
# Submitted via: dBpowerAMP V12.0
#
DISCID=a909110d
DTITLE=Sweet Potato Pie - Brand New Day
DYEAR=2012
DGENRE=Country
TTITLE0=Sweet Blue Eyed Darling
TTITLE1=Rockin' With the Rhythm of the Rain
TTITLE2=Brain Cloudy Blues
TTITLE3=Gonna Run
TTITLE4=Deeper Than the Holler
TTITLE5=Redeeming Lover
TTITLE6=Delta Dawn
TTITLE7=Will You
TTITLE8=Roly Poly
TTITLE9=Walking the Floor
TTITLE10=Ripe For the Pickin'
TTITLE11=Crinkle
TTITLE12=Tell Me Why
EXTD=
EXTT0=
EXTT1=
EXTT2=
EXTT3=
EXTT4=
EXTT5=
EXTT6=
EXTT7=
EXTT8=
EXTT9=
EXTT10=
EXTT11=
EXTT12=
PLAYORDER=
